<svg width="50" height="50" viewBox="0 0 50 50" fill="none" xmlns="http://www.w3.org/2000/svg">
<path d="M21.4221 9.32515C22.7303 9.7137 24.059 9.97955 25.4081 10.1636C25.7556 10.2045 26.1031 10.2454 26.4302 10.2863C26.4506 10.1636 26.4711 10.0204 26.4915 9.89775C26.6346 9.0184 26.7981 8.11861 26.9412 7.23926C27.2683 5.25562 27.6158 3.25153 28.2494 1.34969L28.6174 0.306745C27.7997 0.184046 26.9616 0.102247 26.144 0.061347C25.9396 0.0408971 25.7352 0.0408974 25.5512 0.0408974C25.4081 1.18609 25.1219 2.31084 24.7131 3.37423C24.1408 4.90797 23.4049 6.38036 22.5055 7.77096C22.1784 8.2822 21.8105 8.79345 21.4221 9.32515Z" fill="black"/>
<path d="M26.0215 14.0082C26.0624 13.3742 26.1033 12.7403 26.185 12.1063C25.2856 12.0245 24.4067 11.8814 23.5277 11.7178C22.4034 11.5133 21.2792 11.227 20.1958 10.8793C19.9914 11.1247 19.7665 11.3701 19.5417 11.6155C18.0904 13.2106 16.4551 14.6217 14.6563 15.8078C14.1453 16.1554 13.6138 16.4826 13.0619 16.7894C13.3889 18.2618 13.5116 19.8159 13.3889 21.3088C13.3481 21.9223 13.2663 22.5562 13.1437 23.1697C13.4503 23.1288 13.7364 23.0879 14.0431 23.047C18.1926 22.4744 22.3012 21.6769 26.3486 20.6135C26.0215 18.4254 25.8989 16.2168 26.0215 14.0082Z" fill="black"/>
<path d="M11.3448 28.5685C11.2222 28.8548 11.0791 29.1207 10.9564 29.3865C11.5288 29.591 12.1011 29.816 12.653 30.0818C14.5336 30.9611 16.2915 32.1268 17.8042 33.5378C17.845 33.5787 17.9064 33.6196 17.9473 33.6605C20.625 30.1227 23.2006 26.4826 25.5309 22.7198C21.2996 23.7628 17.0274 24.5399 12.6939 25.0511C12.326 26.2577 11.8763 27.4233 11.3448 28.5685Z" fill="black"/>
<path d="M28.2699 10.409C29.4964 10.4499 30.7433 10.4294 31.9697 10.3272C32.5012 9.03885 32.9918 7.75051 33.4619 6.42127C33.9525 4.96932 34.4226 3.49693 34.7293 1.98364C34.5453 1.90184 34.3409 1.82004 34.1569 1.73824C32.9713 1.26789 31.7449 0.879343 30.4775 0.593044C29.7825 2.31084 29.3737 4.15133 29.0262 5.97137C28.8627 6.85071 28.7196 7.75051 28.5765 8.62985C28.4743 9.24335 28.3721 9.81595 28.2699 10.409Z" fill="black"/>
<path d="M29.2307 12.2699C28.8219 12.2699 28.4335 12.2495 28.0247 12.229C27.7999 14.3558 27.759 16.4826 27.9634 18.589C29.1285 16.5031 30.1915 14.3763 31.1726 12.2086C30.5185 12.2495 29.8644 12.2699 29.2307 12.2699Z" fill="black"/>
<path d="M34.0547 10.0614C36.017 9.7137 37.9385 9.16156 39.7986 8.38446C40.698 7.99591 41.577 7.56647 42.4151 7.09612C41.3521 6.05317 40.187 5.09203 38.9197 4.25358C38.1429 3.72188 37.3253 3.25154 36.4463 2.80164C35.9148 5.17383 35.0972 7.48467 34.1978 9.7546C34.1365 9.8364 34.0956 9.9591 34.0547 10.0614Z" fill="black"/>
<path d="M34.5863 11.82C34.1366 11.9018 33.6868 11.9632 33.2371 12.0245C32.6239 13.4765 31.9494 14.908 31.2544 16.319C30.6616 17.4847 30.0483 18.6299 29.4147 19.7546C32.8079 18.7526 36.1398 17.5869 39.4103 16.2168C41.9041 15.1534 44.3366 13.9877 46.7282 12.6994C46.5851 12.454 46.4421 12.2086 46.299 11.9836C45.5631 10.7771 44.7046 9.591 43.703 8.46626C42.824 8.97751 41.9041 9.44785 40.9639 9.85685C38.9198 10.7566 36.7939 11.4519 34.5863 11.82Z" fill="black"/>
<path d="M28.4744 21.9427C28.8423 23.5583 29.3329 25.1329 29.9666 26.6667C30.8455 28.7321 31.9698 30.6748 33.3189 32.4744C33.3802 32.5562 33.462 32.6585 33.5233 32.7403C34.5862 31.0225 35.8331 29.407 37.2027 27.9141C38.9197 26.0532 40.8412 24.3763 42.9466 22.9857C44.9703 21.6564 47.137 20.5521 49.406 19.6933C49.222 18.8957 49.0176 18.0982 48.7519 17.3211C48.4248 16.319 48.016 15.317 47.5663 14.3558C46.0945 15.1534 44.6228 15.8896 43.1101 16.5849C38.3883 18.773 33.4824 20.5521 28.4744 21.9427Z" fill="black"/>
<path d="M49.7535 21.5133C49.4673 21.6155 49.1607 21.7382 48.8745 21.8609C46.5238 22.863 44.3162 24.1513 42.2925 25.6851C40.2484 27.2802 38.4292 29.1207 36.8347 31.1656C36.0989 32.1268 35.4243 33.1288 34.7906 34.1718C36.1398 35.6237 37.632 36.953 39.2059 38.18C40.6981 39.3252 42.2516 40.3885 43.8051 41.4315C44.7659 40.3476 45.6244 39.182 46.3807 37.955C47.3006 36.4622 48.0773 34.8057 48.6905 33.0266C49.2425 31.3906 49.6513 29.6115 49.8557 27.7301C50.0805 25.7055 50.0397 23.5992 49.7535 21.5133Z" fill="black"/>
<path d="M29.3124 29.5501C28.3721 27.7096 27.5954 25.7669 27.0435 23.7628C24.6314 27.6278 21.9741 31.3497 19.235 34.9693C19.6029 35.3783 19.9709 35.8078 20.3184 36.2577C21.0951 37.2393 21.831 38.2822 22.4851 39.3661C23.1597 40.4908 23.7525 41.6769 24.2635 42.8834C25.2446 42.638 26.2463 42.454 27.2479 42.3722C27.7385 42.3313 28.229 42.3108 28.7196 42.3108C29.0058 42.3108 29.292 42.3108 29.5577 42.3313C29.7621 41.411 30.0074 40.5112 30.2936 39.6115C30.8864 37.8119 31.6427 36.0736 32.5421 34.4172C31.2952 32.9039 30.2118 31.2883 29.3124 29.5501Z" fill="black"/>
<path d="M29.2102 44.1513H28.74C28.0246 44.1513 27.3296 44.1922 26.6142 44.2945C26.0418 44.3763 25.4899 44.4785 24.938 44.6217C25.1015 45.0511 25.2446 45.4806 25.3877 45.91C25.817 47.2393 26.1645 48.6094 26.4711 49.9795C27.35 49.9182 28.2494 49.8159 29.1693 49.6728C29.108 49.4274 29.0671 49.2025 29.0262 48.9571C28.8831 47.9141 28.8831 46.8712 28.9853 45.8078C29.0262 45.2352 29.108 44.7035 29.2102 44.1513Z" fill="black"/>
<path d="M39.349 40.5726C37.4071 39.1411 35.5265 37.6278 33.8504 35.8691C33.5029 36.544 33.1758 37.2393 32.8692 37.9346C32.256 39.4274 31.7654 40.9611 31.3975 42.5358C32.44 42.7198 33.4416 43.0266 34.4227 43.3947C35.6083 43.865 36.7735 44.4172 37.8773 45.092C38.2248 45.2965 38.5723 45.5215 38.9198 45.7464C38.9402 45.726 38.9811 45.7055 39.0015 45.6851C40.2689 44.8262 41.4545 43.865 42.5378 42.7812C42.4969 42.7403 42.4356 42.7198 42.3947 42.6789C41.3522 42.0245 40.3302 41.3088 39.349 40.5726Z" fill="black"/>
<path d="M31.0295 44.3354C30.9682 44.683 30.9069 45.0102 30.866 45.3579C30.7433 46.4213 30.682 47.4847 30.8046 48.5481C30.8455 48.7935 30.8864 49.0389 30.9477 49.2843C33.094 48.7526 35.1995 47.9346 37.1618 46.8303C36.242 46.2781 35.3017 45.7669 34.3205 45.3374C33.2576 44.908 32.1538 44.5603 31.0295 44.3354Z" fill="black"/>
<path d="M14.1452 38.589L14.1247 38.6094C14.0838 38.6708 14.043 38.7116 14.0021 38.773C14.0634 38.7116 14.1043 38.6503 14.1452 38.589Z" fill="black"/>
<path d="M16.5776 35.4192C16.6594 35.317 16.7207 35.2352 16.8025 35.1329C16.3323 34.683 15.8417 34.2536 15.3103 33.8446C14.0634 32.9039 12.7347 32.1268 11.3038 31.4928C10.895 31.3292 10.4862 31.1656 10.0569 31.0225C9.30061 32.3517 8.48297 33.6401 7.58356 34.8875C6.56151 36.3395 5.4577 37.7301 4.35388 39.1207C4.61962 39.5092 4.92623 39.9182 5.25329 40.3477C6.31622 41.7178 7.52224 42.9857 8.85091 44.1104C8.95311 44.1922 9.03488 44.274 9.13708 44.3558C10.9563 42.5971 12.5712 40.6135 14.1043 38.6094C14.9628 37.546 15.76 36.4826 16.5776 35.4192Z" fill="black"/>
<path d="M22.4852 43.4151C21.5858 41.3906 20.4615 39.4683 19.1124 37.7096C18.7854 37.2802 18.4379 36.8712 18.0699 36.4622C17.886 36.6871 17.7224 36.9121 17.5385 37.137C15.617 39.6319 13.7569 42.1881 11.5901 44.4785C11.2631 44.8057 10.9565 45.1534 10.6294 45.4601C11.4879 46.0736 12.4078 46.6258 13.3276 47.1166C13.9204 47.4233 14.5336 47.7301 15.1469 47.9959C15.1673 47.9755 15.1877 47.9755 15.1877 47.955C15.7805 47.4029 16.4142 46.8712 17.0479 46.3804C17.9268 45.6851 18.8467 45.0716 19.8483 44.5399C20.7273 44.1309 21.5858 43.7423 22.4852 43.4151Z" fill="black"/>
<path d="M22.1784 45.501C20.8293 46.0941 19.5619 46.8098 18.3764 47.7096C17.9471 48.0368 17.5178 48.3845 17.109 48.7526C17.5178 48.8957 17.9267 49.0184 18.3355 49.1207C20.0321 49.591 21.8309 49.8773 23.7115 49.9796C23.9976 50 24.2838 50 24.5904 50C24.202 48.3436 23.7523 46.7076 23.18 45.1125C22.8325 45.2352 22.5054 45.3783 22.1784 45.501Z" fill="black"/>
<path d="M7.27701 23.7219C8.03332 23.6605 8.78964 23.5992 9.52552 23.5378C10.0979 23.4969 10.6702 23.4356 11.2221 23.3742C11.3243 22.9448 11.4061 22.4949 11.4674 22.0654C11.6105 20.818 11.6309 19.591 11.4674 18.3436C11.4265 18.1186 11.4061 17.8937 11.3448 17.6687C10.0979 18.2822 8.78964 18.773 7.46098 19.182C5.19202 19.8569 2.82086 20.2454 0.470144 20.2454C0.204411 21.5746 0.0408821 22.9243 0 24.274C1.69661 24.2331 3.39321 24.09 5.06938 23.9264C5.82569 23.8446 6.56157 23.7832 7.27701 23.7219Z" fill="black"/>
<path d="M6.58202 28.3436C7.46099 28.4663 8.31951 28.6094 9.17803 28.8344C9.50509 28.2004 9.79127 27.5665 10.0774 26.9121C10.3023 26.3599 10.5067 25.8078 10.7111 25.2556C10.4454 25.2761 10.1796 25.317 9.89347 25.3374C8.5648 25.4601 7.23614 25.5624 5.90747 25.6851C4.5788 25.8078 3.25014 25.9509 1.90103 26.0327C1.2878 26.0736 0.674566 26.0941 0.0408936 26.1145C0.0817756 26.9121 0.143098 27.7301 0.265745 28.5276C0.306627 28.5276 0.347509 28.5072 0.36795 28.5072C1.59441 28.3027 2.82087 28.18 4.06778 28.18C4.90586 28.18 5.74394 28.2413 6.58202 28.3436Z" fill="black"/>
<path d="M8.23765 30.5112C7.68574 30.3885 7.1134 30.2658 6.54105 30.184C5.70296 30.0818 4.84444 30.0204 4.00636 30.0204C3.14783 30.0204 2.28931 30.0818 1.43079 30.184C1.14461 30.2249 0.85844 30.2658 0.572266 30.3272C0.592707 30.3885 0.592706 30.4703 0.613147 30.5317C0.981086 32.2495 1.59432 33.9877 2.41196 35.7464C2.67769 36.319 2.98431 36.8916 3.31136 37.4847C3.69974 37.0143 4.06768 36.5235 4.43562 36.0532C5.82561 34.274 7.1134 32.4335 8.23765 30.5112Z" fill="black"/>
<path d="M15.5147 6.46217C16.6185 7.28016 17.8041 7.95501 19.0714 8.48671C19.2554 8.56851 19.4189 8.62986 19.6029 8.69121C19.6029 8.67076 19.6234 8.67076 19.6234 8.65031C20.8294 7.07566 21.8719 5.37832 22.6691 3.53783C23.1392 2.39264 23.5072 1.22699 23.6911 0H23.5685C21.7083 0.122699 19.8687 0.429449 18.1312 0.940696C16.455 1.43149 14.7993 2.10634 13.1844 2.98569C13.0209 3.06749 12.8574 3.16973 12.6938 3.25153C12.9187 3.64008 13.164 4.02863 13.4502 4.39673C14.043 5.19427 14.738 5.86912 15.5147 6.46217Z" fill="black"/>
<path d="M10.0979 10.6339C10.7111 11.3906 11.263 12.1881 11.7127 13.047C12.0194 13.6605 12.3055 14.2945 12.5508 14.9284C13.4502 14.3967 14.3292 13.8037 15.1673 13.1697C16.312 12.2699 17.3749 11.2474 18.3561 10.1636C18.213 10.1022 18.0699 10.0409 17.9473 9.97955C16.2302 9.2229 14.6154 8.22086 13.2458 6.91206C12.5713 6.25767 11.958 5.54192 11.447 4.74438C11.3448 4.58078 11.2426 4.41718 11.1404 4.23313C10.3432 4.78527 9.54599 5.37832 8.76923 6.05317C8.2582 6.48262 7.76762 6.95296 7.25659 7.46421C8.29908 8.44581 9.21893 9.52965 10.0979 10.6339Z" fill="black"/>
<path d="M9.44372 16.5235C9.93431 16.319 10.4249 16.0736 10.9155 15.8282C10.8133 15.5215 10.7111 15.2147 10.5884 14.908C10.1387 13.8855 9.58681 12.9243 8.91225 12.0245C8.03329 10.8998 7.093 9.7955 6.03007 8.83435C5.74389 9.16155 5.45772 9.52965 5.15111 9.93865C4.08817 11.3292 3.16832 12.863 2.39157 14.499C1.79878 15.7464 1.32863 17.0552 0.960693 18.3845C1.75789 18.364 2.55509 18.3027 3.33185 18.2004C5.41684 17.9141 7.48138 17.3415 9.44372 16.5235Z" fill="black"/>
</svg>
